<?xml version="1.0" standalone="no"?>
<!DOCTYPE svg PUBLIC "-//W3C//DTD SVG 20010904//EN"
 "http://www.w3.org/TR/2001/REC-SVG-20010904/DTD/svg10.dtd">
<svg version="1.0" xmlns="http://www.w3.org/2000/svg"
 width="1290.000000pt" height="1150.000000pt" viewBox="0 0 1290.000000 1150.000000"
 preserveAspectRatio="xMidYMid meet">

<g transform="translate(0.000000,1150.000000) scale(0.100000,-0.100000)"
fill="#000000" stroke="none">
<path d="M3325 9839 c-167 -9 -232 -17 -241 -30 -3 -5 -14 -9 -25 -9 -10 0
-27 -4 -37 -9 -9 -5 -28 -13 -42 -19 -286 -114 -504 -331 -611 -609 -5 -13
-13 -33 -18 -45 -8 -22 -20 -63 -38 -133 -4 -16 -7 -1571 -7 -3455 0 -2686 3
-3436 13 -3475 6 -27 14 -62 18 -78 3 -15 9 -30 14 -33 5 -3 9 -12 9 -21 0
-32 89 -200 148 -278 67 -90 137 -160 232 -229 66 -48 211 -123 285 -146 22
-7 49 -16 60 -21 95 -37 263 -40 2762 -36 1944 2 2447 6 2483 16 97 28 176 53
205 65 88 39 116 54 180 95 39 25 111 86 161 136 136 134 222 274 273 445 12
41 27 89 33 105 5 17 12 170 15 343 6 308 6 312 27 317 11 3 401 6 866 8 694
2 851 5 880 16 19 8 60 23 90 34 30 11 67 29 82 39 14 10 30 18 35 18 11 0 89
66 130 110 52 56 120 151 144 200 12 25 25 53 30 62 5 10 9 27 9 37 0 11 4 22
9 25 21 13 25 152 25 921 0 769 -4 908 -25 921 -5 3 -9 14 -9 25 0 10 -4 27
-9 37 -5 9 -18 37 -30 62 -22 45 -85 135 -132 187 -30 33 -117 106 -133 112
-6 2 -29 16 -51 31 -22 14 -60 32 -85 40 -25 7 -49 17 -54 22 -6 4 -24 8 -41
8 -17 0 -35 4 -41 10 -6 6 -313 11 -859 12 l-850 3 -5 795 -5 795 -1286 1286
-1286 1286 -1574 5 c-866 2 -1641 1 -1724 -3z m3071 -1074 c1 -357 5 -694 8
-748 13 -180 91 -384 206 -539 136 -180 353 -330 570 -393 140 -40 229 -45
922 -45 l668 0 2 -667 c2 -368 2 -673 0 -680 -3 -9 -192 -13 -775 -15 -547 -3
-781 -7 -802 -16 -16 -6 -59 -21 -95 -33 -159 -53 -344 -220 -416 -374 -66
-142 -67 -155 -73 -490 l-6 -310 -1210 -5 -1210 -5 -50 -25 c-131 -65 -154
-245 -45 -344 21 -19 56 -39 77 -45 26 -7 420 -11 1229 -11 912 0 1193 -3
1202 -12 13 -13 18 -381 6 -412 -6 -14 -121 -16 -1203 -16 -845 0 -1208 -3
-1236 -11 -55 -15 -120 -82 -135 -139 -27 -101 13 -201 100 -250 l45 -25 1255
-5 1254 -5 39 -58 c49 -75 171 -196 242 -241 30 -20 58 -36 60 -36 3 0 24 -8
48 -19 23 -10 60 -23 82 -29 22 -6 51 -14 65 -19 14 -4 368 -10 788 -13 l763
-5 -1 -277 -1 -278 -29 -90 c-35 -108 -85 -184 -174 -268 -77 -72 -148 -115
-226 -138 -30 -9 -65 -20 -78 -25 -30 -12 -4989 -12 -5028 0 -16 5 -49 15 -74
22 -197 58 -368 245 -426 467 -21 79 -21 6705 0 6784 36 137 80 214 181 313
81 80 160 129 250 156 22 6 49 15 60 20 11 4 729 7 1595 6 l1575 -2 1 -650z
m466 246 c2 -6 342 -350 756 -765 415 -416 752 -761 750 -766 -4 -12 -870 -17
-968 -6 -256 30 -467 208 -557 471 -15 44 -17 111 -20 563 -4 504 -4 512 16
512 10 0 21 -4 23 -9z m3984 -3651 c127 -23 272 -126 320 -230 12 -25 28 -58
35 -75 11 -24 15 -173 17 -805 2 -471 -1 -799 -7 -838 -14 -89 -55 -167 -125
-236 -71 -70 -154 -112 -251 -126 -94 -13 -3434 -13 -3528 0 -172 25 -300 133
-368 310 -11 28 -14 188 -14 845 0 705 2 815 15 850 62 160 182 267 340 301
73 16 3476 19 3566 4z"/>
<path d="M4156 5295 c-164 -59 -182 -292 -29 -382 l48 -28 705 0 705 0 42 22
c146 79 157 270 20 368 l-42 30 -705 2 c-582 2 -712 0 -744 -12z"/>
<path d="M7120 4664 c0 -3 30 -56 66 -117 37 -62 75 -125 84 -142 9 -16 49
-83 88 -149 40 -65 72 -121 72 -125 0 -3 9 -17 20 -31 18 -23 20 -42 20 -228
l0 -203 123 3 122 3 3 207 2 207 115 192 c63 105 115 194 115 196 0 2 14 24
30 48 17 24 30 46 30 50 0 3 11 23 25 43 14 20 25 40 25 45 0 4 -63 6 -141 5
l-140 -3 -84 -160 c-80 -154 -106 -187 -118 -148 -3 10 -22 47 -43 83 -39 69
-87 157 -111 203 l-14 27 -145 0 c-79 0 -144 -3 -144 -6z"/>
<path d="M8375 4658 c-3 -7 -31 -92 -64 -188 -160 -480 -213 -637 -220 -655
-5 -11 -15 -40 -22 -65 -7 -25 -16 -50 -21 -56 -4 -6 -5 -14 -1 -17 9 -9 235
-8 249 1 6 4 14 18 17 32 3 14 14 54 24 90 l20 65 155 3 155 2 12 -30 c13 -34
23 -66 41 -127 l13 -43 129 0 c70 0 128 4 128 9 0 5 -32 103 -71 217 -38 115
-77 232 -85 259 -8 28 -19 59 -24 70 -5 11 -32 90 -60 175 -28 85 -55 163 -60
172 -6 10 -10 24 -10 32 0 8 -5 27 -12 41 l-11 25 -139 0 c-102 0 -140 -3
-143 -12z m164 -355 c26 -94 34 -118 42 -135 5 -10 9 -27 9 -37 0 -11 5 -23
10 -26 6 -3 10 -15 10 -26 0 -17 -8 -19 -89 -19 -50 0 -92 4 -96 9 -3 5 -1 20
4 33 5 13 24 68 41 123 17 55 33 106 35 113 9 24 21 11 34 -35z"/>
<path d="M9092 4173 l3 -498 115 0 115 0 3 303 c1 196 6 302 12 302 6 0 13 -8
16 -17 8 -23 17 -48 43 -105 12 -26 21 -50 21 -53 0 -2 13 -33 28 -67 16 -35
34 -78 41 -95 l13 -33 90 0 89 0 16 38 c8 20 26 61 39 90 13 29 24 55 24 57 0
2 14 34 30 70 17 36 30 71 30 79 0 7 9 21 20 31 20 18 20 17 17 -289 -2 -357
-20 -318 143 -314 l105 3 3 498 2 497 -147 0 -148 0 -14 -32 c-8 -18 -24 -55
-36 -83 -13 -27 -33 -72 -45 -100 -12 -27 -36 -79 -52 -115 -16 -36 -37 -82
-45 -102 -8 -21 -18 -38 -22 -38 -7 0 -18 23 -84 170 -15 36 -37 84 -48 108
-33 73 -57 126 -70 160 l-14 32 -148 0 -147 0 2 -497z"/>
<path d="M10312 4173 l3 -498 333 -3 333 -2 -3 95 -3 96 -200 2 -200 2 -3 403
-2 402 -130 0 -130 0 2 -497z"/>
</g>
</svg>
